<svg xmlns="http://www.w3.org/2000/svg" width="250" height="250" viewBox="0 0 250 250">
<!-- SVG created with Arrow, by QuiverAI (https://quiver.ai) -->
  <path d="m128.9 9.25h-8.66c-1.51 9.12-5.62 10.76-13.55 10.76h-16.45c-16.46 0-22.37 8.74-22.37 26.91v10.39l11.13-8.24c1.14-11.32 2.44-16.99 12.02-16.99h15.17c10.75 0 16.48-4.36 18.48-11.41 3.11 7.05 9.01 11.41 19.76 11.41h15.17c9.58 0 10.42 5.67 11.57 16.99l10.4 8.24v-10.39c0-18.17-5.9-27.15-22.36-27.15h-15.26c-7.93 0-13.83-1.4-15.05-10.52z" fill="#191A51"/>
  <path d="m127.8 44.78h-6.14c-1.12 6.99-3.79 7.43-9.65 7.43h-9.86c-11.28 0-15.09 4.96-15.09 17.8v7.15l6.3-0.55c0.9-8.82 0.3-15.63 9.03-15.63h9.26c7.49 0 11.51-2.5 13.09-8.07 2.1 5.57 5.72 7.83 13.21 7.83h9.26c8.73 0 7.76 4.64 8.66 16.11l7.24 0.31v-7.15c0-12.84-4.48-18.04-15.76-18.04h-8.58c-5.86 0-9.66-0.2-10.97-7.19z" fill="#191A51"/>
  <path d="m184.2 35.73c1.23 4.31 1.4 8.98 1.4 13.82 7.6 6.43 12.77 12.07 17.2 18.26l13.04 1.03c-8.37-14.77-17.61-23.59-31.64-33.11z" fill="#191A51"/>
  <path d="m157.3 50.27c4.83-1.44 9.9 0.59 18.53 7.84 8.64 7.25 14.15 13.17 18.87 20.8l-9.58-0.95c-6.22-7.64-11.2-11.87-20.34-17.78-1.42-4.76-3.01-7.27-7.48-9.91z" fill="#191A51"/>
  <path d="m223.2 74.71c-6.14-2.58-14.38-3.3-24.27-3.54v7.03c3.1 0.71 5.56 1.7 7.92 3.91 10.48 0 15.27 4.07 15.27 11.83v12.03c0 9.48 3.1 15.65 11.03 19.22-7.93 2.54-11.51 8.45-11.51 19.17v12.96c0 7.03-3.91 9.9-12.98 10.62-2.46 2.07-4.93 3.32-8.51 3.32v6.79c7.71-0.48 15.48-1.19 20.98-3.26 10.79-4.07 12.47-10.7 12.47-24.63v-6.32c0-8.98 3.58-13.93 11.41-14.65v-8.77c-8.31-0.98-11.13-5.46-11.13-14.45v-8.77c0-10.71-2.18-18.92-10.68-22.49z" fill="#191A51"/>
  <path d="m183.9 81.87v5.92c2.82 0.98 4.88 2.19 6.45 2.91 7.93 0 11.73 2.31 11.73 9.34v8.29c0 8.29 1.68 13.49 8.06 16.82-6.38 3.1-8.54 8.77-8.54 17.54v8.05c0 6.32-3.91 8.39-11.84 8.87l-5.66 3.81v4.96c16.46-0.49 26.64-2.17 26.64-17.64v-8.53c0-8.29 2.61-12.98 10.28-13.73v-7.29c-7.43-0.73-9.8-4.08-9.8-13.56v-7.3c0-14.49-6.63-18.22-27.32-18.46z" fill="#191A51"/>
  <path d="m169.6 89.66v6.5c9.33 0.72 14.36 1.44 14.36 8.69v8.29c0 6.07 2.16 10.18 6.45 12.01-4.78 2.07-6.45 7.03-6.45 13.82v6.99c0 6.27-4.16 7.25-14.36 7.73v6.75c13.68-0.25 21.33-2.67 21.33-14.32v-8.98c0-6.23 2.47-8.73 7.25-9.45v-5.87c-5.5-0.98-7.73-3.85-7.73-11.61v-6.15c0-10.72-6.69-14.16-20.85-14.4z" fill="#191A51"/>
  <path d="m184.2 213.5c13.51-9.76 22.75-19.76 31.12-33.11l-12.64 1.7c-5.74 7.25-10.57 12.65-17.53 18.05l-0.95 13.36z" fill="#191A51"/>
  <path d="m181.5 192.1c-4.35 4.07-6.25 5.06-11.31 8.13-1.14 9.99-1.98 16.42-12.47 16.42h-15.16c-10.25 0-15.98 3.64-18.48 11.19-3.1-7.55-8.49-11.67-19.24-11.67h-14.25c-9.58 0-10.42-5.95-11.56-15.94l-11.13-8.13v7.54c0 16.53 4.91 28.92 20.69 28.92h17.91c8.5 0 12.68 2.39 13.75 12.22h8.66c1.22-8.6 5.34-11.74 14.25-12.22h14.24c17.77 0 24.1-6.62 24.1-27.48v-8.98z" fill="#191A51"/>
  <path d="m194.7 170.9-9.9 0.71c-6.79 8.02-11.96 13.94-20.38 18.01-1.42 4.68-2.77 7.1-6.56 9.01 4.35 1.68 8.35-1.03 17.21-7.44s15.31-13.04 19.63-20.29z" fill="#191A51"/>
  <path d="m163.2 172.4-7.04 0.48c-1.14 9.76-0.94 15.67-9.41 15.67h-9.26c-7.33 0-11.17 1.74-12.79 7.49-2.5-5.75-6.69-7.73-14.18-7.73h-7.67c-7.93 0-7.89-3.88-9.51-15.91l-6.54-0.24c0.24 14.73 0.96 24.67 15.02 24.67h10.13c6.34 0 9.41 1.12 9.69 7.59h6.14c0.71-6.23 4.29-7.83 10.9-7.59h8.55c13.68 0 15.73-8 15.97-24.43z" fill="#191A51"/>
  <path d="m65.38 35.73c-13.51 9.76-22.75 19.76-31.12 33.11l11.92-1.03c6.24-7.63 11.65-13.03 18.25-18.43l0.95-13.65z" fill="#191A51"/>
  <path d="m49.99 71.17c-7.72 0.48-15.49 0.48-21.7 2.9-9.58 3.57-12.4 11.32-12.4 22.04v8.77c0 8.98-3.07 14.37-10.49 15.35v8.78c7.82 0.71 10.49 5.67 10.49 14.65v8.77c0 10.72 2.22 19.39 13.01 22.68 5.5 1.75 13.27 2.23 20.98 2.7v-6.32c-3.58-0.71-6.05-2.43-8.51-3.95-9.07-0.48-12.98-2.67-12.98-11.44v-10.22c0-11.24-2.67-17.15-11.53-20.97 7.93-3.09 10.75-9.72 10.75-20.42v-10.72c0-7.03 4.79-10.64 14.37-10.64 2.46-2.25 4.93-3.23 8.01-3.71v-8.25z" fill="#191A51"/>
  <path d="m50.23 71.17c-10.48 0-18.19 0.96-22.5 3.03 6.14-2.58 13.69-3.03 22.5-3.03z" fill="#191A51"/>
  <path d="m50.23 71.17c-10.48 0-18.19 0.96-22.5 3.03 6.14-2.58 13.69-3.03 22.5-3.03z" fill="#191A51"/>
  <path d="m54.18 171.4 10.17 0.24c5.73 7.55 11.56 12.71 20.62 17.62 2.46 5.67 3.81 7.85 6.84 9.04-4.34 1.44-8.79-1.19-17.83-8.09-9.04-6.89-14.77-13.06-19.8-18.81z" fill="#191A51"/>
  <path d="m64.9 65.12c-5.07 5.12-7.69 8.71-10.4 13.67l9.69-0.51c6.24-8.04 12.44-13.16 20.86-18.06 2.46-5.67 3.81-8.09 7.86-9.99-5.4-1.92-10.79 1.42-19.65 8.32-3.14 2.63-5.35 4.41-8.36 6.57z" fill="#191A51"/>
  <path d="m65.38 213.5c-13.51-9.76-22.75-19.76-31.12-33.11l12.64 1.7c5.74 7.25 10.57 12.65 17.53 18.05l0.95 13.36z" fill="#191A51"/>
  <path d="m65.62 81.87v5.36c-2.82 1.54-4.88 2.75-7.11 2.99-7.93 0-11.04 2.79-11.04 8.66v8.77c0 8.03-1.68 13.7-8.06 16.79 6.38 2.58 8.54 8.49 8.54 16.78v8.77c0 6.79 2.47 9.14 10.93 9.62l6.74 2.86v5.91c-16.46-0.24-28.42-2.17-28.42-17.16v-11.2c0-7.76-3.58-10.83-9.47-12.29v-6.34c6.91-1.2 9.19-6.23 9.19-13.78v-7.3c0-13.48 6.14-18.2 28.7-18.44z" fill="#191A51"/>
  <path d="m79.76 89.66v5.91c-9.33 0.98-13.9 2.03-13.9 9.28v7.76c0 6.32-2.47 10.75-7.95 12.58 5.5 1.44 7.71 5.76 7.71 12.47v7.75c0 7.25 2.55 7.3 14.34 8.5v6.49c-13.68-0.24-19.82-3.18-19.82-14.38v-8.77c0-5.39-2.47-8.06-9.44-9.04v-6.27c6.91-0.48 7.94-3.93 7.94-13.89v-3.95c0-9.96 4.96-14.2 21.12-14.44z" fill="#191A51"/>
  <path d="m124.7 77.44-14.06 26.3h28.48l-14.42-26.3z" fill="#05A6B9"/>
  <path d="m146.4 113.9h23.3v22.37h-23.3v-22.37z" fill="#05A6B9" stroke="#05A6B9" stroke-miterlimit="10" stroke-width="1.5"/>
  <path d="m91.81 113.1-13.4 23.52h26.46l-13.06-23.52z" fill="#05A6B9" stroke="#05A6B9" stroke-miterlimit="10" stroke-width="1.5"/>
  <path d="m124.6 145.1c-8.72-0.24-12.95 6.98-12.95 13.77 0 7.55 6.46 12.21 12.59 12.21 8.17 0 12.95-6.63 12.95-12.1 0-7.54-4.78-13.64-12.59-13.88z" fill="#05A6B9"/>
  <path d="m108.1 94.26c-7.25 3.86-11.95 9.52-14.14 14.43l2.9 0.28c3.22-6.11 6.97-9.89 11.76-12.34l-0.52-2.37z" fill="#05A6B9" stroke="#05A6B9" stroke-miterlimit="10" stroke-width="2"/>
  <path d="m142.4 93.5c6.75 3.86 10.96 9.03 13.66 14.19l-2.86 0.72c-3.7-6.32-7.12-9.57-11.91-12.25l1.11-2.66z" fill="#05A6B9" stroke="#05A6B9" stroke-miterlimit="10" stroke-width="2"/>
  <path d="m94.51 141.4c3.62 7.55 7.2 10.65 12.26 13.33l-0.71 2.07c-6.75-3.33-10.37-8.61-12.43-14.69l0.88-0.71z" fill="#05A6B9" stroke="#05A6B9" stroke-miterlimit="10" stroke-width="2"/>
  <path d="m153.7 141.2c-3.11 6.55-6.47 10.41-11.54 13.09l0.48 2.31c6.75-3.87 11.22-8.89 13.44-14.72l-2.38-0.68z" fill="#05A6B9" stroke="#05A6B9" stroke-miterlimit="10" stroke-width="2"/>
</svg>